<?xml version="1.0" encoding="utf-8"?>
<!-- Generator: Adobe Illustrator 15.0.0, SVG Export Plug-In  -->
<!DOCTYPE svg PUBLIC "-//W3C//DTD SVG 1.1//EN" "http://www.w3.org/Graphics/SVG/1.1/DTD/svg11.dtd" [
	<!ENTITY ns_flows "http://ns.adobe.com/Flows/1.0/">
]>
<svg version="1.1"
	 xmlns="http://www.w3.org/2000/svg" xmlns:xlink="http://www.w3.org/1999/xlink" xmlns:a="http://ns.adobe.com/AdobeSVGViewerExtensions/3.0/"
	 x="0px" y="0px" width="320px" height="75px" viewBox="-7.809 -7.886 320 75"
	 overflow="visible" enable-background="new -7.809 -7.886 320 75" xml:space="preserve">
<defs>
</defs>
<path fill="#666666" d="M2.773,25.654v23.366H0V18.929h2.773v1.941c2.496-2.496,5.408-3.744,8.736-3.744
	c3.56,0,6.454,1.115,8.685,3.346s3.368,5.032,3.415,8.407v20.142H20.87V29.156c0-2.566-0.925-4.75-2.773-6.553
	s-4.045-2.704-6.587-2.704c-2.519,0-4.703,0.89-6.552,2.669C3.964,23.562,3.236,24.592,2.773,25.654z"/>
<path fill="#666666" d="M31.859,31.514c-0.069,0.484-0.104,1.005-0.104,1.56c0,3.837,1.357,7.106,4.073,9.812
	c2.716,2.703,5.991,4.056,9.828,4.056s7.118-1.363,9.846-4.091c0.462-0.462,0.901-0.947,1.317-1.456l2.947,1.04
	c-0.347,0.578-1.075,1.41-2.185,2.496c-3.282,3.305-7.257,4.957-11.926,4.957c-4.622,0-8.58-1.646-11.873-4.939
	c-3.294-3.294-4.94-7.252-4.94-11.874c0-4.669,1.646-8.644,4.94-11.926c3.293-3.282,7.251-4.923,11.873-4.923
	c4.669,0,8.644,1.641,11.926,4.923c2.889,2.912,4.334,6.368,4.334,10.366H31.859z M32.38,28.705h26.417
	c-0.647-2.104-1.746-3.929-3.294-5.478c-2.728-2.728-6.009-4.091-9.846-4.091s-7.118,1.363-9.846,4.091
	C34.194,24.869,33.05,26.694,32.38,28.705z"/>
<path fill="#666666" d="M77.24,21.355c-1.965,0.301-3.895,1.549-5.79,3.744c-1.895,2.195-2.843,4.414-2.843,6.656v17.265h-2.773
	V18.929h2.773v6.518c1.156-3.027,3.524-5.28,7.107-6.761L77.24,21.355z"/>
<path fill="#666666" d="M113.052,49.021h-2.773v-6.136c-0.532,0.717-1.109,1.398-1.733,2.045c-3.282,3.305-7.257,4.957-11.926,4.957
	c-4.622,0-8.58-1.646-11.873-4.939c-3.294-3.294-4.94-7.252-4.94-11.874c0-4.669,1.646-8.644,4.94-11.926
	c3.293-3.282,7.251-4.923,11.873-4.923c4.669,0,8.644,1.641,11.926,4.923c0.624,0.647,1.201,1.329,1.733,2.046V0h2.773V49.021z
	 M110.278,35.777v-5.443c-0.509-2.703-1.78-5.072-3.813-7.106c-2.728-2.728-6.009-4.091-9.846-4.091s-7.112,1.363-9.828,4.091
	s-4.073,6.009-4.073,9.846s1.357,7.106,4.073,9.812c2.716,2.703,5.991,4.056,9.828,4.056s7.118-1.363,9.846-4.091
	C108.498,40.816,109.77,38.459,110.278,35.777z"/>
<path fill="#666666" d="M119.569,0h2.773v23.158c0.509-0.693,1.087-1.363,1.733-2.011c3.282-3.282,7.246-4.923,11.892-4.923
	s8.608,1.641,11.891,4.923c3.281,3.282,4.923,7.257,4.923,11.926c0,4.622-1.642,8.58-4.923,11.874
	c-3.282,3.293-7.245,4.939-11.891,4.939s-8.609-1.652-11.892-4.957c-0.646-0.646-1.225-1.317-1.733-2.011v6.102h-2.773V0z
	 M122.343,30.195v5.756c0.509,2.611,1.769,4.911,3.779,6.898c2.727,2.728,6.009,4.091,9.846,4.091c3.836,0,7.112-1.353,9.828-4.056
	c2.716-2.705,4.073-5.975,4.073-9.812s-1.357-7.118-4.073-9.846s-5.992-4.091-9.828-4.091c-3.837,0-7.119,1.363-9.846,4.091
	C124.111,25.238,122.852,27.561,122.343,30.195z"/>
<path fill="#666666" d="M191.158,49.021h-2.773v-6.136c-0.532,0.717-1.109,1.398-1.733,2.045c-3.282,3.305-7.257,4.957-11.926,4.957
	c-4.622,0-8.58-1.646-11.873-4.939c-3.294-3.294-4.94-7.252-4.94-11.874c0-4.669,1.646-8.644,4.94-11.926
	c3.293-3.282,7.251-4.923,11.873-4.923c4.669,0,8.644,1.641,11.926,4.923c0.624,0.647,1.201,1.329,1.733,2.046v-4.265h2.773V49.021z
	 M188.385,35.777v-5.443c-0.509-2.703-1.78-5.072-3.813-7.106c-2.728-2.728-6.009-4.091-9.846-4.091s-7.112,1.363-9.828,4.091
	s-4.073,6.009-4.073,9.846s1.357,7.106,4.073,9.812c2.716,2.703,5.991,4.056,9.828,4.056s7.118-1.363,9.846-4.091
	C186.604,40.816,187.876,38.459,188.385,35.777z"/>
<path fill="#666666" d="M200.449,25.654v23.366h-2.773V18.929h2.773v1.941c2.496-2.496,5.408-3.744,8.736-3.744
	c3.56,0,6.454,1.115,8.685,3.346s3.368,5.032,3.415,8.407v20.142h-2.739V29.156c0-2.566-0.925-4.75-2.773-6.553
	s-4.045-2.704-6.587-2.704c-2.519,0-4.703,0.89-6.552,2.669C201.64,23.562,200.912,24.592,200.449,25.654z"/>
<path fill="#666666" d="M230.073,44.756c0.542,0.532,0.814,1.18,0.814,1.941c0,0.764-0.272,1.41-0.814,1.941
	c-0.544,0.531-1.185,0.798-1.925,0.798c-0.763,0-1.415-0.267-1.958-0.798c-0.544-0.531-0.815-1.178-0.815-1.941
	c0-0.762,0.271-1.409,0.815-1.941c0.543-0.531,1.195-0.797,1.958-0.797C228.889,43.959,229.529,44.225,230.073,44.756z"/>
<path fill="#666666" d="M268.605,49.021h-2.773v-6.136c-0.532,0.717-1.109,1.398-1.733,2.045c-3.282,3.305-7.257,4.957-11.926,4.957
	c-4.622,0-8.58-1.646-11.873-4.939c-3.294-3.294-4.94-7.252-4.94-11.874c0-4.669,1.646-8.644,4.94-11.926
	c3.293-3.282,7.251-4.923,11.873-4.923c4.669,0,8.644,1.641,11.926,4.923c0.624,0.647,1.201,1.329,1.733,2.046V0h2.773V49.021z
	 M265.832,35.777v-5.443c-0.509-2.703-1.78-5.072-3.813-7.106c-2.728-2.728-6.009-4.091-9.846-4.091s-7.112,1.363-9.828,4.091
	s-4.073,6.009-4.073,9.846s1.357,7.106,4.073,9.812c2.716,2.703,5.991,4.056,9.828,4.056s7.118-1.363,9.846-4.091
	C264.052,40.816,265.323,38.459,265.832,35.777z"/>
<path fill="#666666" d="M276.51,31.514c-0.069,0.484-0.104,1.005-0.104,1.56c0,3.837,1.357,7.106,4.073,9.812
	c2.716,2.703,5.991,4.056,9.828,4.056s7.118-1.363,9.846-4.091c0.462-0.462,0.901-0.947,1.317-1.456l2.947,1.04
	c-0.347,0.578-1.075,1.41-2.185,2.496c-3.282,3.305-7.257,4.957-11.926,4.957c-4.622,0-8.58-1.646-11.873-4.939
	c-3.294-3.294-4.94-7.252-4.94-11.874c0-4.669,1.646-8.644,4.94-11.926c3.293-3.282,7.251-4.923,11.873-4.923
	c4.669,0,8.644,1.641,11.926,4.923c2.889,2.912,4.334,6.368,4.334,10.366H276.51z M277.03,28.705h26.417
	c-0.647-2.104-1.746-3.929-3.294-5.478c-2.728-2.728-6.009-4.091-9.846-4.091s-7.118,1.363-9.846,4.091
	C278.845,24.869,277.7,26.694,277.03,28.705z"/>
</svg>
